STARTFONT 2.1
FONT -Vovanium-Salut Sans-Medium-I-Normal--12-120-72-72-P-60-ISO10646-1
SIZE 12 72 72
FONTBOUNDINGBOX 12 12 -1 -2
STARTPROPERTIES 21
POINT_SIZE 120
PIXEL_SIZE 12
RESOLUTION_X 72
RESOLUTION_Y 72
FONT_ASCENT 10
FONT_DESCENT 2
AVERAGE_WIDTH 60
SPACING "P"
CAP_HEIGHT 8
CHARSET_REGISTRY "ISO10646"
CHARSET_ENCODING "1"
FOUNDRY "Vovanium"
RELATIVE_SETWIDTH 50
RELATIVE_WEIGHT 50
SETWIDTH_NAME "Normal"
SLANT "I"
WEIGHT_NAME "Medium"
X_HEIGHT 6
FAMILY_NAME "Salut Sans"
_GBDFED_INFO "Edited with gbdfed 1.6."
ADD_STYLE_NAME ""
ENDPROPERTIES
CHARS 258
STARTCHAR SPACE
ENCODING 32
SWIDTH 250 0
DWIDTH 3 0
BBX 0 0 0 0
BITMAP
ENDCHAR
STARTCHAR EXCLAMATION MARK
ENCODING 33
SWIDTH 250 0
DWIDTH 3 0
BBX 2 8 0 0
BITMAP
40
40
40
80
80
00
80
80
ENDCHAR
STARTCHAR QUOTATION MARK
ENCODING 34
SWIDTH 416 0
DWIDTH 5 0
BBX 3 2 1 6
BITMAP
A0
A0
ENDCHAR
STARTCHAR NUMBER SIGN
ENCODING 35
SWIDTH 500 0
DWIDTH 6 0
BBX 5 8 1 0
BITMAP
28
28
F8
50
50
F8
A0
A0
ENDCHAR
STARTCHAR DOLLAR SIGN
ENCODING 36
SWIDTH 500 0
DWIDTH 6 0
BBX 6 10 0 -1
BITMAP
10
38
44
40
20
10
08
88
70
20
ENDCHAR
STARTCHAR PERCENT SIGN
ENCODING 37
SWIDTH 583 0
DWIDTH 7 0
BBX 6 8 1 0
BITMAP
40
A4
48
10
20
48
94
08
ENDCHAR
STARTCHAR AMPERSAND
ENCODING 38
SWIDTH 500 0
DWIDTH 6 0
BBX 6 8 0 0
BITMAP
18
24
28
10
34
4C
88
74
ENDCHAR
STARTCHAR APOSTROPHE
ENCODING 39
SWIDTH 250 0
DWIDTH 3 0
BBX 1 2 1 6
BITMAP
80
80
ENDCHAR
STARTCHAR LEFT PARENTHESIS
ENCODING 40
SWIDTH 333 0
DWIDTH 4 0
BBX 4 10 1 -1
BITMAP
10
20
40
40
80
80
80
80
40
40
ENDCHAR
STARTCHAR RIGHT PARENTHESIS
ENCODING 41
SWIDTH 333 0
DWIDTH 4 0
BBX 4 10 0 -1
BITMAP
20
20
10
10
10
10
20
20
40
80
ENDCHAR
STARTCHAR ASTERISK
ENCODING 42
SWIDTH 333 0
DWIDTH 4 0
BBX 3 4 1 4
BITMAP
40
E0
40
A0
ENDCHAR
STARTCHAR PLUS SIGN
ENCODING 43
SWIDTH 500 0
DWIDTH 6 0
BBX 5 5 1 1
BITMAP
20
20
F8
20
20
ENDCHAR
STARTCHAR COMMA
ENCODING 44
SWIDTH 250 0
DWIDTH 3 0
BBX 3 3 -1 -1
BITMAP
20
40
80
ENDCHAR
STARTCHAR HYPHEN-MINUS
ENCODING 45
SWIDTH 333 0
DWIDTH 4 0
BBX 3 1 0 3
BITMAP
E0
ENDCHAR
STARTCHAR FULL STOP
ENCODING 46
SWIDTH 250 0
DWIDTH 3 0
BBX 1 2 1 0
BITMAP
80
80
ENDCHAR
STARTCHAR SOLIDUS
ENCODING 47
SWIDTH 500 0
DWIDTH 6 0
BBX 5 10 1 -1
BITMAP
08
08
10
10
20
20
40
40
80
80
ENDCHAR
STARTCHAR DIGIT ZERO
ENCODING 48
SWIDTH 500 0
DWIDTH 6 0
BBX 5 8 0 0
BITMAP
30
48
48
88
88
90
90
60
ENDCHAR
STARTCHAR DIGIT ONE
ENCODING 49
SWIDTH 500 0
DWIDTH 6 0
BBX 4 8 0 0
BITMAP
10
70
10
10
20
20
20
F0
ENDCHAR
STARTCHAR DIGIT TWO
ENCODING 50
SWIDTH 500 0
DWIDTH 6 0
BBX 5 8 0 0
BITMAP
30
48
08
10
10
20
40
F0
ENDCHAR
STARTCHAR DIGIT THREE
ENCODING 51
SWIDTH 500 0
DWIDTH 6 0
BBX 5 8 0 0
BITMAP
78
10
20
10
10
10
90
60
ENDCHAR
STARTCHAR DIGIT FOUR
ENCODING 52
SWIDTH 500 0
DWIDTH 6 0
BBX 5 8 0 0
BITMAP
08
18
28
28
50
F8
10
10
ENDCHAR
STARTCHAR DIGIT FIVE
ENCODING 53
SWIDTH 500 0
DWIDTH 6 0
BBX 5 8 0 0
BITMAP
78
40
70
08
08
10
90
60
ENDCHAR
STARTCHAR DIGIT SIX
ENCODING 54
SWIDTH 500 0
DWIDTH 6 0
BBX 4 8 0 0
BITMAP
10
20
40
60
90
90
90
60
ENDCHAR
STARTCHAR DIGIT SEVEN
ENCODING 55
SWIDTH 500 0
DWIDTH 6 0
BBX 4 8 1 0
BITMAP
F0
10
20
20
40
40
80
80
ENDCHAR
STARTCHAR DIGIT EIGHT
ENCODING 56
SWIDTH 500 0
DWIDTH 6 0
BBX 5 8 0 0
BITMAP
30
48
50
20
50
90
90
60
ENDCHAR
STARTCHAR DIGIT NINE
ENCODING 57
SWIDTH 500 0
DWIDTH 6 0
BBX 4 8 1 0
BITMAP
60
90
90
90
60
20
40
80
ENDCHAR
STARTCHAR COLON
ENCODING 58
SWIDTH 250 0
DWIDTH 3 0
BBX 2 6 1 0
BITMAP
40
40
00
00
80
80
ENDCHAR
STARTCHAR SEMICOLON
ENCODING 59
SWIDTH 250 0
DWIDTH 3 0
BBX 4 7 -1 -1
BITMAP
10
10
00
00
20
40
80
ENDCHAR
STARTCHAR LESS-THAN SIGN
ENCODING 60
SWIDTH 666 0
DWIDTH 8 0
BBX 6 5 1 1
BITMAP
0C
30
C0
30
0C
ENDCHAR
STARTCHAR EQUALS SIGN
ENCODING 61
SWIDTH 666 0
DWIDTH 8 0
BBX 6 3 1 2
BITMAP
FC
00
FC
ENDCHAR
STARTCHAR GREATER-THAN SIGN
ENCODING 62
SWIDTH 666 0
DWIDTH 8 0
BBX 6 5 1 1
BITMAP
C0
30
0C
30
C0
ENDCHAR
STARTCHAR QUESTION MARK
ENCODING 63
SWIDTH 416 0
DWIDTH 5 0
BBX 4 8 1 0
BITMAP
E0
10
20
40
00
00
80
80
ENDCHAR
STARTCHAR COMMERCIAL AT
ENCODING 64
SWIDTH 666 0
DWIDTH 8 0
BBX 8 10 0 -2
BITMAP
1E
21
4D
55
A5
AA
AA
94
40
38
ENDCHAR
STARTCHAR LATIN CAPITAL LETTER A
ENCODING 65
SWIDTH 583 0
DWIDTH 7 0
BBX 5 8 0 0
BITMAP
08
18
28
28
48
78
88
88
ENDCHAR
STARTCHAR LATIN CAPITAL LETTER B
ENCODING 66
SWIDTH 583 0
DWIDTH 7 0
BBX 6 8 0 0
BITMAP
78
44
48
70
88
88
88
F0
ENDCHAR
STARTCHAR LATIN CAPITAL LETTER C
ENCODING 67
SWIDTH 583 0
DWIDTH 7 0
BBX 6 8 0 0
BITMAP
38
44
40
80
80
80
88
70
ENDCHAR
STARTCHAR LATIN CAPITAL LETTER D
ENCODING 68
SWIDTH 583 0
DWIDTH 7 0
BBX 6 8 0 0
BITMAP
78
44
44
44
84
88
88
F0
ENDCHAR
STARTCHAR LATIN CAPITAL LETTER E
ENCODING 69
SWIDTH 500 0
DWIDTH 6 0
BBX 5 8 0 0
BITMAP
78
40
40
70
80
80
80
F0
ENDCHAR
STARTCHAR LATIN CAPITAL LETTER F
ENCODING 70
SWIDTH 500 0
DWIDTH 6 0
BBX 5 8 0 0
BITMAP
78
40
40
70
80
80
80
80
ENDCHAR
STARTCHAR LATIN CAPITAL LETTER G
ENCODING 71
SWIDTH 583 0
DWIDTH 7 0
BBX 6 8 0 0
BITMAP
38
44
40
40
98
88
88
70
ENDCHAR
STARTCHAR LATIN CAPITAL LETTER H
ENCODING 72
SWIDTH 583 0
DWIDTH 7 0
BBX 6 8 0 0
BITMAP
44
44
44
7C
88
88
88
88
ENDCHAR
STARTCHAR LATIN CAPITAL LETTER I
ENCODING 73
SWIDTH 416 0
DWIDTH 5 0
BBX 4 8 0 0
BITMAP
70
20
20
20
40
40
40
E0
ENDCHAR
STARTCHAR LATIN CAPITAL LETTER J
ENCODING 74
SWIDTH 500 0
DWIDTH 6 0
BBX 5 8 0 0
BITMAP
18
08
08
08
10
10
90
60
ENDCHAR
STARTCHAR LATIN CAPITAL LETTER K
ENCODING 75
SWIDTH 500 0
DWIDTH 6 0
BBX 6 8 0 0
BITMAP
44
48
50
60
A0
90
90
88
ENDCHAR
STARTCHAR LATIN CAPITAL LETTER L
ENCODING 76
SWIDTH 500 0
DWIDTH 6 0
BBX 4 8 0 0
BITMAP
40
40
40
40
80
80
80
F0
ENDCHAR
STARTCHAR LATIN CAPITAL LETTER M
ENCODING 77
SWIDTH 750 0
DWIDTH 9 0
BBX 7 8 0 0
BITMAP
12
12
36
36
5A
5A
92
92
ENDCHAR
STARTCHAR LATIN CAPITAL LETTER N
ENCODING 78
SWIDTH 583 0
DWIDTH 7 0
BBX 6 8 0 0
BITMAP
44
44
64
64
98
98
88
88
ENDCHAR
STARTCHAR LATIN CAPITAL LETTER O
ENCODING 79
SWIDTH 666 0
DWIDTH 8 0
BBX 7 8 0 0
BITMAP
1C
22
42
42
84
84
88
70
ENDCHAR
STARTCHAR LATIN CAPITAL LETTER P
ENCODING 80
SWIDTH 583 0
DWIDTH 7 0
BBX 6 8 0 0
BITMAP
78
44
44
78
80
80
80
80
ENDCHAR
STARTCHAR LATIN CAPITAL LETTER Q
ENCODING 81
SWIDTH 666 0
DWIDTH 8 0
BBX 7 10 0 -2
BITMAP
1C
22
42
42
84
84
88
70
24
18
ENDCHAR
STARTCHAR LATIN CAPITAL LETTER R
ENCODING 82
SWIDTH 583 0
DWIDTH 7 0
BBX 6 8 0 0
BITMAP
78
44
44
78
A0
90
90
88
ENDCHAR
STARTCHAR LATIN CAPITAL LETTER S
ENCODING 83
SWIDTH 583 0
DWIDTH 7 0
BBX 6 8 0 0
BITMAP
38
44
40
20
10
08
88
70
ENDCHAR
STARTCHAR LATIN CAPITAL LETTER T
ENCODING 84
SWIDTH 500 0
DWIDTH 6 0
BBX 5 8 1 0
BITMAP
F8
20
20
20
40
40
40
40
ENDCHAR
STARTCHAR LATIN CAPITAL LETTER U
ENCODING 85
SWIDTH 583 0
DWIDTH 7 0
BBX 6 8 0 0
BITMAP
44
44
44
44
88
88
88
70
ENDCHAR
STARTCHAR LATIN CAPITAL LETTER V
ENCODING 86
SWIDTH 583 0
DWIDTH 7 0
BBX 5 8 1 0
BITMAP
88
88
90
90
A0
A0
C0
80
ENDCHAR
STARTCHAR LATIN CAPITAL LETTER W
ENCODING 87
SWIDTH 833 0
DWIDTH 10 0
BBX 9 8 1 0
BITMAP
8880
8880
9900
9900
AA00
AA00
CC00
8800
ENDCHAR
STARTCHAR LATIN CAPITAL LETTER X
ENCODING 88
SWIDTH 500 0
DWIDTH 6 0
BBX 6 8 0 0
BITMAP
44
48
28
30
30
50
48
88
ENDCHAR
STARTCHAR LATIN CAPITAL LETTER Y
ENCODING 89
SWIDTH 500 0
DWIDTH 6 0
BBX 6 8 0 0
BITMAP
84
48
50
20
20
40
40
40
ENDCHAR
STARTCHAR LATIN CAPITAL LETTER Z
ENCODING 90
SWIDTH 500 0
DWIDTH 6 0
BBX 5 8 0 0
BITMAP
78
08
10
20
20
40
80
F0
ENDCHAR
STARTCHAR LEFT SQUARE BRACKET
ENCODING 91
SWIDTH 333 0
DWIDTH 4 0
BBX 5 11 0 -2
BITMAP
38
20
20
40
40
40
40
40
80
80
E0
ENDCHAR
STARTCHAR REVERSE SOLIDUS
ENCODING 92
SWIDTH 500 0
DWIDTH 6 0
BBX 5 10 1 -1
BITMAP
80
80
40
40
20
20
10
10
08
08
ENDCHAR
STARTCHAR RIGHT SQUARE BRACKET
ENCODING 93
SWIDTH 333 0
DWIDTH 4 0
BBX 5 11 -1 -2
BITMAP
38
08
08
10
10
10
10
10
20
20
E0
ENDCHAR
STARTCHAR CIRCUMFLEX ACCENT
ENCODING 94
SWIDTH 333 0
DWIDTH 4 0
BBX 3 2 1 6
BITMAP
40
A0
ENDCHAR
STARTCHAR LOW LINE
ENCODING 95
SWIDTH 500 0
DWIDTH 6 0
BBX 6 1 -1 -1
BITMAP
FC
ENDCHAR
STARTCHAR GRAVE ACCENT
ENCODING 96
SWIDTH 250 0
DWIDTH 3 0
BBX 2 2 1 6
BITMAP
80
40
ENDCHAR
STARTCHAR LATIN SMALL LETTER A
ENCODING 97
SWIDTH 500 0
DWIDTH 6 0
BBX 5 6 0 0
BITMAP
38
48
88
90
90
68
ENDCHAR
STARTCHAR LATIN SMALL LETTER B
ENCODING 98
SWIDTH 500 0
DWIDTH 6 0
BBX 5 8 0 0
BITMAP
40
40
70
48
88
88
90
E0
ENDCHAR
STARTCHAR LATIN SMALL LETTER C
ENCODING 99
SWIDTH 500 0
DWIDTH 6 0
BBX 5 6 0 0
BITMAP
30
48
80
80
90
60
ENDCHAR
STARTCHAR LATIN SMALL LETTER D
ENCODING 100
SWIDTH 500 0
DWIDTH 6 0
BBX 5 8 0 0
BITMAP
08
08
38
48
90
90
90
68
ENDCHAR
STARTCHAR LATIN SMALL LETTER E
ENCODING 101
SWIDTH 500 0
DWIDTH 6 0
BBX 5 6 0 0
BITMAP
30
48
70
80
80
60
ENDCHAR
STARTCHAR LATIN SMALL LETTER F
ENCODING 102
SWIDTH 416 0
DWIDTH 5 0
BBX 5 8 1 0
BITMAP
38
40
F0
40
40
80
80
80
ENDCHAR
STARTCHAR LATIN SMALL LETTER G
ENCODING 103
SWIDTH 500 0
DWIDTH 6 0
BBX 5 8 0 -2
BITMAP
38
48
88
90
90
70
10
E0
ENDCHAR
STARTCHAR LATIN SMALL LETTER H
ENCODING 104
SWIDTH 500 0
DWIDTH 6 0
BBX 5 8 0 0
BITMAP
40
40
70
48
48
90
90
90
ENDCHAR
STARTCHAR LATIN SMALL LETTER I
ENCODING 105
SWIDTH 250 0
DWIDTH 3 0
BBX 3 8 0 0
BITMAP
20
00
40
40
80
80
80
40
ENDCHAR
STARTCHAR LATIN SMALL LETTER J
ENCODING 106
SWIDTH 333 0
DWIDTH 4 0
BBX 4 10 -1 -2
BITMAP
10
00
30
10
10
20
20
20
20
C0
ENDCHAR
STARTCHAR LATIN SMALL LETTER K
ENCODING 107
SWIDTH 416 0
DWIDTH 5 0
BBX 5 8 0 0
BITMAP
40
40
58
60
C0
A0
A0
90
ENDCHAR
STARTCHAR LATIN SMALL LETTER L
ENCODING 108
SWIDTH 250 0
DWIDTH 3 0
BBX 2 8 0 0
BITMAP
40
40
40
40
80
80
80
40
ENDCHAR
STARTCHAR LATIN SMALL LETTER M
ENCODING 109
SWIDTH 750 0
DWIDTH 9 0
BBX 8 6 0 0
BITMAP
7E
49
49
92
92
92
ENDCHAR
STARTCHAR LATIN SMALL LETTER N
ENCODING 110
SWIDTH 500 0
DWIDTH 6 0
BBX 5 6 0 0
BITMAP
70
48
48
90
90
90
ENDCHAR
STARTCHAR LATIN SMALL LETTER O
ENCODING 111
SWIDTH 500 0
DWIDTH 6 0
BBX 5 6 0 0
BITMAP
30
48
88
88
90
60
ENDCHAR
STARTCHAR LATIN SMALL LETTER P
ENCODING 112
SWIDTH 500 0
DWIDTH 6 0
BBX 5 8 0 -2
BITMAP
70
48
48
48
90
E0
80
80
ENDCHAR
STARTCHAR LATIN SMALL LETTER Q
ENCODING 113
SWIDTH 500 0
DWIDTH 6 0
BBX 5 8 0 -2
BITMAP
38
48
48
88
90
70
10
18
ENDCHAR
STARTCHAR LATIN SMALL LETTER R
ENCODING 114
SWIDTH 416 0
DWIDTH 5 0
BBX 5 6 0 0
BITMAP
58
60
40
80
80
80
ENDCHAR
STARTCHAR LATIN SMALL LETTER S
ENCODING 115
SWIDTH 416 0
DWIDTH 5 0
BBX 5 6 0 0
BITMAP
38
40
20
10
10
E0
ENDCHAR
STARTCHAR LATIN SMALL LETTER T
ENCODING 116
SWIDTH 416 0
DWIDTH 5 0
BBX 4 8 1 0
BITMAP
40
40
F0
40
80
80
80
60
ENDCHAR
STARTCHAR LATIN SMALL LETTER U
ENCODING 117
SWIDTH 500 0
DWIDTH 6 0
BBX 5 6 0 0
BITMAP
48
48
48
90
90
68
ENDCHAR
STARTCHAR LATIN SMALL LETTER V
ENCODING 118
SWIDTH 500 0
DWIDTH 6 0
BBX 4 6 1 0
BITMAP
90
90
A0
A0
C0
80
ENDCHAR
STARTCHAR LATIN SMALL LETTER W
ENCODING 119
SWIDTH 750 0
DWIDTH 9 0
BBX 8 6 0 0
BITMAP
41
49
89
91
92
6C
ENDCHAR
STARTCHAR LATIN SMALL LETTER X
ENCODING 120
SWIDTH 500 0
DWIDTH 6 0
BBX 5 6 0 0
BITMAP
48
50
20
20
50
90
ENDCHAR
STARTCHAR LATIN SMALL LETTER Y
ENCODING 121
SWIDTH 500 0
DWIDTH 6 0
BBX 5 8 0 -2
BITMAP
48
48
48
90
90
70
20
C0
ENDCHAR
STARTCHAR LATIN SMALL LETTER Z
ENCODING 122
SWIDTH 500 0
DWIDTH 6 0
BBX 5 6 0 0
BITMAP
78
10
20
20
40
F0
ENDCHAR
STARTCHAR LEFT CURLY BRACKET
ENCODING 123
SWIDTH 500 0
DWIDTH 6 0
BBX 6 11 0 -2
BITMAP
0C
10
10
10
20
C0
20
40
40
40
30
ENDCHAR
STARTCHAR VERTICAL LINE
ENCODING 124
SWIDTH 250 0
DWIDTH 3 0
BBX 1 9 1 -1
BITMAP
80
80
80
80
80
80
80
80
80
ENDCHAR
STARTCHAR RIGHT CURLY BRACKET
ENCODING 125
SWIDTH 500 0
DWIDTH 6 0
BBX 6 11 -1 -2
BITMAP
30
08
08
08
10
0C
10
20
20
20
C0
ENDCHAR
STARTCHAR TILDE
ENCODING 126
SWIDTH 416 0
DWIDTH 5 0
BBX 4 2 1 6
BITMAP
50
A0
ENDCHAR
STARTCHAR NO-BREAK SPACE
ENCODING 160
SWIDTH 250 0
DWIDTH 3 0
BBX 0 0 0 0
BITMAP
ENDCHAR
STARTCHAR INVERTED EXCLAMATION MARK
ENCODING 161
SWIDTH 250 0
DWIDTH 3 0
BBX 2 8 0 -2
BITMAP
40
40
00
40
40
80
80
80
ENDCHAR
STARTCHAR CENT SIGN
ENCODING 162
SWIDTH 500 0
DWIDTH 6 0
BBX 5 10 0 -2
BITMAP
10
10
30
48
80
80
90
60
40
40
ENDCHAR
STARTCHAR POUND SIGN
ENCODING 163
SWIDTH 583 0
DWIDTH 7 0
BBX 6 8 0 0
BITMAP
18
24
70
20
40
40
40
F8
ENDCHAR
STARTCHAR CURRENCY SIGN
ENCODING 164
SWIDTH 500 0
DWIDTH 6 0
BBX 5 5 1 1
BITMAP
88
70
50
70
88
ENDCHAR
STARTCHAR YEN SIGN
ENCODING 165
SWIDTH 500 0
DWIDTH 6 0
BBX 6 8 0 0
BITMAP
84
48
50
F8
20
F8
40
40
ENDCHAR
STARTCHAR BROKEN BAR
ENCODING 166
SWIDTH 250 0
DWIDTH 3 0
BBX 1 10 1 -1
BITMAP
80
80
80
80
00
00
80
80
80
80
ENDCHAR
STARTCHAR SECTION SIGN
ENCODING 167
SWIDTH 416 0
DWIDTH 5 0
BBX 6 10 0 -2
BITMAP
1C
20
10
28
48
48
50
20
10
E0
ENDCHAR
STARTCHAR DIAERESIS
ENCODING 168
SWIDTH 333 0
DWIDTH 4 0
BBX 3 1 1 7
BITMAP
A0
ENDCHAR
STARTCHAR COPYRIGHT SIGN
ENCODING 169
SWIDTH 1000 0
DWIDTH 12 0
BBX 10 10 1 -1
BITMAP
1E00
6180
4480
8A40
9040
9040
9240
4C80
6180
1E00
ENDCHAR
STARTCHAR FEMININE ORDINAL INDICATOR
ENCODING 170
SWIDTH 333 0
DWIDTH 4 0
BBX 4 5 1 4
BITMAP
30
50
90
A0
60
ENDCHAR
STARTCHAR LEFT-POINTING DOUBLE ANGLE QUOTATION MARK
ENCODING 171
SWIDTH 416 0
DWIDTH 5 0
BBX 4 5 1 1
BITMAP
20
50
A0
90
40
ENDCHAR
STARTCHAR NOT SIGN
ENCODING 172
SWIDTH 500 0
DWIDTH 6 0
BBX 5 3 1 3
BITMAP
F8
08
08
ENDCHAR
STARTCHAR SOFT HYPHEN
ENCODING 173
SWIDTH 0 0
DWIDTH 0 0
BBX 0 0 0 0
BITMAP
ENDCHAR
STARTCHAR REGISTERED SIGN
ENCODING 174
SWIDTH 1000 0
DWIDTH 12 0
BBX 10 10 1 -1
BITMAP
1E00
6180
4E80
8940
8940
9E40
9440
5280
6180
1E00
ENDCHAR
STARTCHAR MACRON
ENCODING 175
SWIDTH 333 0
DWIDTH 4 0
BBX 3 1 1 7
BITMAP
E0
ENDCHAR
STARTCHAR DEGREE SIGN
ENCODING 176
SWIDTH 333 0
DWIDTH 4 0
BBX 3 3 1 5
BITMAP
E0
A0
E0
ENDCHAR
STARTCHAR PLUS-MINUS SIGN
ENCODING 177
SWIDTH 500 0
DWIDTH 6 0
BBX 5 7 1 0
BITMAP
20
20
F8
20
20
00
F8
ENDCHAR
STARTCHAR SUPERSCRIPT TWO
ENCODING 178
SWIDTH 416 0
DWIDTH 5 0
BBX 5 6 1 4
BITMAP
30
48
10
20
40
F0
ENDCHAR
STARTCHAR SUPERSCRIPT THREE
ENCODING 179
SWIDTH 416 0
DWIDTH 5 0
BBX 5 6 1 4
BITMAP
78
10
20
10
90
60
ENDCHAR
STARTCHAR ACUTE ACCENT
ENCODING 180
SWIDTH 250 0
DWIDTH 3 0
BBX 2 2 1 6
BITMAP
40
80
ENDCHAR
STARTCHAR MICRO SIGN
ENCODING 181
SWIDTH 500 0
DWIDTH 6 0
BBX 6 8 -1 -2
BITMAP
24
24
24
48
48
74
80
80
ENDCHAR
STARTCHAR PILCROW SIGN
ENCODING 182
SWIDTH 500 0
DWIDTH 6 0
BBX 5 10 1 -2
BITMAP
78
D0
D0
50
50
50
50
50
50
50
ENDCHAR
STARTCHAR MIDDLE DOT
ENCODING 183
SWIDTH 250 0
DWIDTH 3 0
BBX 1 2 1 2
BITMAP
80
80
ENDCHAR
STARTCHAR CEDILLA
ENCODING 184
SWIDTH 250 0
DWIDTH 3 0
BBX 2 2 0 -2
BITMAP
40
80
ENDCHAR
STARTCHAR SUPERSCRIPT ONE
ENCODING 185
SWIDTH 416 0
DWIDTH 5 0
BBX 3 6 2 4
BITMAP
20
60
20
40
40
E0
ENDCHAR
STARTCHAR MASCULINE ORDINAL INDICATOR
ENCODING 186
SWIDTH 333 0
DWIDTH 4 0
BBX 4 5 1 4
BITMAP
20
50
90
A0
40
ENDCHAR
STARTCHAR RIGHT-POINTING DOUBLE ANGLE QUOTATION MARK
ENCODING 187
SWIDTH 416 0
DWIDTH 5 0
BBX 4 5 1 1
BITMAP
20
90
50
A0
40
ENDCHAR
STARTCHAR VULGAR FRACTION ONE QUARTER
ENCODING 188
SWIDTH 833 0
DWIDTH 10 0
BBX 8 12 1 -2
BITMAP
10
30
11
22
24
78
12
26
4A
94
1E
04
ENDCHAR
STARTCHAR VULGAR FRACTION ONE HALF
ENCODING 189
SWIDTH 833 0
DWIDTH 10 0
BBX 8 12 1 -2
BITMAP
10
30
11
22
24
78
16
29
42
84
08
1E
ENDCHAR
STARTCHAR VULGAR FRACTION THREE QUARTERS
ENCODING 190
SWIDTH 833 0
DWIDTH 10 0
BBX 8 12 1 -2
BITMAP
78
10
21
12
94
68
12
26
4A
94
1E
04
ENDCHAR
STARTCHAR INVERTED QUESTION MARK
ENCODING 191
SWIDTH 416 0
DWIDTH 5 0
BBX 4 8 0 -2
BITMAP
10
10
00
00
20
40
80
70
ENDCHAR
STARTCHAR LATIN CAPITAL LETTER A WITH GRAVE
ENCODING 192
SWIDTH 583 0
DWIDTH 7 0
BBX 5 10 0 0
BITMAP
10
08
00
18
28
28
48
78
88
88
ENDCHAR
STARTCHAR LATIN CAPITAL LETTER A WITH ACUTE
ENCODING 193
SWIDTH 583 0
DWIDTH 7 0
BBX 6 10 0 0
BITMAP
04
08
00
18
28
28
48
78
88
88
ENDCHAR
STARTCHAR LATIN CAPITAL LETTER A WITH CIRCUMFLEX
ENCODING 194
SWIDTH 583 0
DWIDTH 7 0
BBX 6 10 0 0
BITMAP
08
14
00
18
28
28
48
78
88
88
ENDCHAR
STARTCHAR LATIN CAPITAL LETTER A WITH TILDE
ENCODING 195
SWIDTH 583 0
DWIDTH 7 0
BBX 7 10 0 0
BITMAP
0A
14
00
18
28
28
48
78
88
88
ENDCHAR
STARTCHAR LATIN CAPITAL LETTER A WITH DIAERESIS
ENCODING 196
SWIDTH 583 0
DWIDTH 7 0
BBX 6 10 0 0
BITMAP
14
00
08
18
28
28
48
78
88
88
ENDCHAR
STARTCHAR LATIN CAPITAL LETTER A WITH RING ABOVE
ENCODING 197
SWIDTH 583 0
DWIDTH 7 0
BBX 6 10 0 0
BITMAP
1C
14
1C
18
28
28
48
78
88
88
ENDCHAR
STARTCHAR LATIN CAPITAL LETTER AE
ENCODING 198
SWIDTH 750 0
DWIDTH 9 0
BBX 8 8 0 0
BITMAP
1F
18
28
2E
50
70
90
9E
ENDCHAR
STARTCHAR LATIN CAPITAL LETTER C WITH CEDILLA
ENCODING 199
SWIDTH 583 0
DWIDTH 7 0
BBX 6 10 0 -2
BITMAP
38
44
40
80
80
80
88
70
20
40
ENDCHAR
STARTCHAR LATIN CAPITAL LETTER E WITH GRAVE
ENCODING 200
SWIDTH 500 0
DWIDTH 6 0
BBX 5 10 0 0
BITMAP
20
10
00
78
40
70
80
80
80
F0
ENDCHAR
STARTCHAR LATIN CAPITAL LETTER E WITH ACUTE
ENCODING 201
SWIDTH 500 0
DWIDTH 6 0
BBX 5 10 0 0
BITMAP
08
10
00
78
40
70
80
80
80
F0
ENDCHAR
STARTCHAR LATIN CAPITAL LETTER E WITH CIRCUMFLEX
ENCODING 202
SWIDTH 500 0
DWIDTH 6 0
BBX 5 10 0 0
BITMAP
10
28
00
78
40
70
80
80
80
F0
ENDCHAR
STARTCHAR LATIN CAPITAL LETTER E WITH DIAERESIS
ENCODING 203
SWIDTH 500 0
DWIDTH 6 0
BBX 5 10 0 0
BITMAP
28
00
78
40
40
70
80
80
80
F0
ENDCHAR
STARTCHAR LATIN CAPITAL LETTER I WITH GRAVE
ENCODING 204
SWIDTH 416 0
DWIDTH 5 0
BBX 4 10 0 0
BITMAP
20
10
00
70
20
20
40
40
40
E0
ENDCHAR
STARTCHAR LATIN CAPITAL LETTER I WITH ACUTE
ENCODING 205
SWIDTH 416 0
DWIDTH 5 0
BBX 5 10 0 0
BITMAP
08
10
00
70
20
20
40
40
40
E0
ENDCHAR
STARTCHAR LATIN CAPITAL LETTER I WITH CIRCUMFLEX
ENCODING 206
SWIDTH 416 0
DWIDTH 5 0
BBX 5 10 0 0
BITMAP
10
28
00
70
20
20
40
40
40
E0
ENDCHAR
STARTCHAR LATIN CAPITAL LETTER I WITH DIAERESIS
ENCODING 207
SWIDTH 416 0
DWIDTH 5 0
BBX 5 10 0 0
BITMAP
28
00
70
20
20
20
40
40
40
E0
ENDCHAR
STARTCHAR LATIN CAPITAL LETTER ETH
ENCODING 208
SWIDTH 666 0
DWIDTH 8 0
BBX 7 8 0 0
BITMAP
3C
22
22
FA
42
44
44
78
ENDCHAR
STARTCHAR LATIN CAPITAL LETTER N WITH TILDE
ENCODING 209
SWIDTH 583 0
DWIDTH 7 0
BBX 6 10 0 0
BITMAP
14
28
00
44
64
64
98
98
88
88
ENDCHAR
STARTCHAR LATIN CAPITAL LETTER O WITH GRAVE
ENCODING 210
SWIDTH 666 0
DWIDTH 8 0
BBX 7 10 0 0
BITMAP
08
04
00
1C
22
42
44
84
88
70
ENDCHAR
STARTCHAR LATIN CAPITAL LETTER O WITH ACUTE
ENCODING 211
SWIDTH 666 0
DWIDTH 8 0
BBX 7 10 0 0
BITMAP
04
08
00
1C
22
42
44
84
88
70
ENDCHAR
STARTCHAR LATIN CAPITAL LETTER O WITH CIRCUMFLEX
ENCODING 212
SWIDTH 666 0
DWIDTH 8 0
BBX 7 10 0 0
BITMAP
08
14
00
1C
22
42
44
84
88
70
ENDCHAR
STARTCHAR LATIN CAPITAL LETTER O WITH TILDE
ENCODING 213
SWIDTH 666 0
DWIDTH 8 0
BBX 7 10 0 0
BITMAP
0A
14
00
1C
22
42
44
84
88
70
ENDCHAR
STARTCHAR LATIN CAPITAL LETTER O WITH DIAERESIS
ENCODING 214
SWIDTH 666 0
DWIDTH 8 0
BBX 7 10 0 0
BITMAP
14
00
1C
22
42
42
84
84
88
70
ENDCHAR
STARTCHAR MULTIPLICATION SIGN
ENCODING 215
SWIDTH 500 0
DWIDTH 6 0
BBX 5 5 1 1
BITMAP
88
50
20
50
88
ENDCHAR
STARTCHAR LATIN CAPITAL LETTER O WITH STROKE
ENCODING 216
SWIDTH 666 0
DWIDTH 8 0
BBX 7 8 0 0
BITMAP
1A
24
4A
52
94
A4
48
B0
ENDCHAR
STARTCHAR LATIN CAPITAL LETTER U WITH GRAVE
ENCODING 217
SWIDTH 583 0
DWIDTH 7 0
BBX 6 10 0 0
BITMAP
20
10
44
44
44
44
88
88
88
70
ENDCHAR
STARTCHAR LATIN CAPITAL LETTER U WITH ACUTE
ENCODING 218
SWIDTH 583 0
DWIDTH 7 0
BBX 6 10 0 0
BITMAP
08
10
44
44
44
44
88
88
88
70
ENDCHAR
STARTCHAR LATIN CAPITAL LETTER U WITH CIRCUMFLEX
ENCODING 219
SWIDTH 583 0
DWIDTH 7 0
BBX 6 10 0 0
BITMAP
08
14
00
44
44
44
88
88
88
70
ENDCHAR
STARTCHAR LATIN CAPITAL LETTER U WITH DIAERESIS
ENCODING 220
SWIDTH 583 0
DWIDTH 7 0
BBX 6 10 0 0
BITMAP
14
00
44
44
44
44
88
88
88
70
ENDCHAR
STARTCHAR LATIN CAPITAL LETTER Y WITH ACUTE
ENCODING 221
SWIDTH 500 0
DWIDTH 6 0
BBX 6 10 0 0
BITMAP
08
10
84
48
50
20
20
40
40
40
ENDCHAR
STARTCHAR LATIN CAPITAL LETTER THORN
ENCODING 222
SWIDTH 583 0
DWIDTH 7 0
BBX 6 8 0 0
BITMAP
40
40
78
44
84
F8
80
80
ENDCHAR
STARTCHAR LATIN SMALL LETTER SHARP S
ENCODING 223
SWIDTH 500 0
DWIDTH 6 0
BBX 5 8 0 0
BITMAP
30
48
50
60
A0
90
90
A0
ENDCHAR
STARTCHAR LATIN SMALL LETTER A WITH GRAVE
ENCODING 224
SWIDTH 500 0
DWIDTH 6 0
BBX 5 9 0 0
BITMAP
20
10
00
38
48
88
90
90
68
ENDCHAR
STARTCHAR LATIN SMALL LETTER A WITH ACUTE
ENCODING 225
SWIDTH 500 0
DWIDTH 6 0
BBX 5 9 0 0
BITMAP
08
10
00
38
48
88
90
90
68
ENDCHAR
STARTCHAR LATIN SMALL LETTER A WITH CIRCUMFLEX
ENCODING 226
SWIDTH 500 0
DWIDTH 6 0
BBX 5 9 0 0
BITMAP
10
28
00
38
48
88
90
90
68
ENDCHAR
STARTCHAR LATIN SMALL LETTER A WITH TILDE
ENCODING 227
SWIDTH 500 0
DWIDTH 6 0
BBX 6 9 0 0
BITMAP
14
28
00
38
48
88
90
90
68
ENDCHAR
STARTCHAR LATIN SMALL LETTER A WITH DIAERESIS
ENCODING 228
SWIDTH 500 0
DWIDTH 6 0
BBX 5 8 0 0
BITMAP
28
00
38
48
88
90
90
68
ENDCHAR
STARTCHAR LATIN SMALL LETTER A WITH RING ABOVE
ENCODING 229
SWIDTH 500 0
DWIDTH 6 0
BBX 5 10 0 0
BITMAP
38
28
38
00
38
48
88
90
90
68
ENDCHAR
STARTCHAR LATIN SMALL LETTER AE
ENCODING 230
SWIDTH 750 0
DWIDTH 9 0
BBX 8 6 0 0
BITMAP
36
09
7F
90
90
6E
ENDCHAR
STARTCHAR LATIN SMALL LETTER C WITH CEDILLA
ENCODING 231
SWIDTH 500 0
DWIDTH 6 0
BBX 5 8 0 -2
BITMAP
30
48
80
80
90
60
20
40
ENDCHAR
STARTCHAR LATIN SMALL LETTER E WITH GRAVE
ENCODING 232
SWIDTH 500 0
DWIDTH 6 0
BBX 5 9 0 0
BITMAP
20
10
00
30
48
70
80
80
60
ENDCHAR
STARTCHAR LATIN SMALL LETTER E WITH ACUTE
ENCODING 233
SWIDTH 500 0
DWIDTH 6 0
BBX 5 9 0 0
BITMAP
08
10
00
30
48
70
80
80
60
ENDCHAR
STARTCHAR LATIN SMALL LETTER E WITH CIRCUMFLEX
ENCODING 234
SWIDTH 500 0
DWIDTH 6 0
BBX 5 9 0 0
BITMAP
10
28
00
30
48
70
80
80
60
ENDCHAR
STARTCHAR LATIN SMALL LETTER E WITH DIAERESIS
ENCODING 235
SWIDTH 500 0
DWIDTH 6 0
BBX 5 8 0 0
BITMAP
28
00
30
48
70
80
80
60
ENDCHAR
STARTCHAR LATIN SMALL LETTER I WITH GRAVE
ENCODING 236
SWIDTH 250 0
DWIDTH 3 0
BBX 3 9 0 0
BITMAP
40
20
00
40
40
80
80
80
40
ENDCHAR
STARTCHAR LATIN SMALL LETTER I WITH ACUTE
ENCODING 237
SWIDTH 250 0
DWIDTH 3 0
BBX 4 9 0 0
BITMAP
10
20
00
40
40
80
80
80
40
ENDCHAR
STARTCHAR LATIN SMALL LETTER I WITH CIRCUMFLEX
ENCODING 238
SWIDTH 250 0
DWIDTH 3 0
BBX 3 9 0 0
BITMAP
40
A0
00
40
40
80
80
80
40
ENDCHAR
STARTCHAR LATIN SMALL LETTER I WITH DIAERESIS
ENCODING 239
SWIDTH 250 0
DWIDTH 3 0
BBX 4 8 0 0
BITMAP
50
00
40
40
80
80
80
40
ENDCHAR
STARTCHAR LATIN SMALL LETTER ETH
ENCODING 240
SWIDTH 500 0
DWIDTH 6 0
BBX 6 9 0 0
BITMAP
10
3C
08
38
48
88
88
90
60
ENDCHAR
STARTCHAR LATIN SMALL LETTER N WITH TILDE
ENCODING 241
SWIDTH 500 0
DWIDTH 6 0
BBX 6 9 0 0
BITMAP
14
28
00
70
48
48
90
90
90
ENDCHAR
STARTCHAR LATIN SMALL LETTER O WITH GRAVE
ENCODING 242
SWIDTH 500 0
DWIDTH 6 0
BBX 5 9 0 0
BITMAP
20
10
00
30
48
88
88
90
60
ENDCHAR
STARTCHAR LATIN SMALL LETTER O WITH ACUTE
ENCODING 243
SWIDTH 500 0
DWIDTH 6 0
BBX 5 9 0 0
BITMAP
08
10
00
30
48
88
88
90
60
ENDCHAR
STARTCHAR LATIN SMALL LETTER O WITH CIRCUMFLEX
ENCODING 244
SWIDTH 500 0
DWIDTH 6 0
BBX 5 9 0 0
BITMAP
10
28
00
30
48
88
88
90
60
ENDCHAR
STARTCHAR LATIN SMALL LETTER O WITH TILDE
ENCODING 245
SWIDTH 500 0
DWIDTH 6 0
BBX 6 9 0 0
BITMAP
14
28
00
30
48
88
88
90
60
ENDCHAR
STARTCHAR LATIN SMALL LETTER O WITH DIAERESIS
ENCODING 246
SWIDTH 500 0
DWIDTH 6 0
BBX 5 8 0 0
BITMAP
28
00
30
48
88
88
90
60
ENDCHAR
STARTCHAR DIVISION SIGN
ENCODING 247
SWIDTH 500 0
DWIDTH 6 0
BBX 5 5 1 1
BITMAP
20
00
F8
00
20
ENDCHAR
STARTCHAR LATIN SMALL LETTER O WITH STROKE
ENCODING 248
SWIDTH 500 0
DWIDTH 6 0
BBX 5 6 0 0
BITMAP
38
58
A8
A8
D0
E0
ENDCHAR
STARTCHAR LATIN SMALL LETTER U WITH GRAVE
ENCODING 249
SWIDTH 500 0
DWIDTH 6 0
BBX 5 9 0 0
BITMAP
20
10
00
48
48
48
90
90
68
ENDCHAR
STARTCHAR LATIN SMALL LETTER U WITH ACUTE
ENCODING 250
SWIDTH 500 0
DWIDTH 6 0
BBX 5 9 0 0
BITMAP
08
10
00
48
48
48
90
90
68
ENDCHAR
STARTCHAR LATIN SMALL LETTER U WITH CIRCUMFLEX
ENCODING 251
SWIDTH 500 0
DWIDTH 6 0
BBX 5 9 0 0
BITMAP
10
28
00
48
48
48
90
90
68
ENDCHAR
STARTCHAR LATIN SMALL LETTER U WITH DIAERESIS
ENCODING 252
SWIDTH 500 0
DWIDTH 6 0
BBX 5 8 0 0
BITMAP
28
00
48
48
48
90
90
68
ENDCHAR
STARTCHAR LATIN SMALL LETTER Y WITH ACUTE
ENCODING 253
SWIDTH 500 0
DWIDTH 6 0
BBX 5 11 0 -2
BITMAP
08
10
00
48
48
48
90
90
70
20
C0
ENDCHAR
STARTCHAR LATIN SMALL LETTER THORN
ENCODING 254
SWIDTH 500 0
DWIDTH 6 0
BBX 5 10 0 -2
BITMAP
20
20
70
48
48
48
90
E0
80
80
ENDCHAR
STARTCHAR LATIN SMALL LETTER Y WITH DIAERESIS
ENCODING 255
SWIDTH 500 0
DWIDTH 6 0
BBX 5 10 0 -2
BITMAP
28
00
48
48
48
90
90
70
20
C0
ENDCHAR
STARTCHAR CYRILLIC CAPITAL LETTER IO
ENCODING 1025
SWIDTH 500 0
DWIDTH 6 0
BBX 6 10 0 0
BITMAP
24
00
78
40
40
70
80
80
80
F0
ENDCHAR
STARTCHAR CYRILLIC CAPITAL LETTER A
ENCODING 1040
SWIDTH 583 0
DWIDTH 7 0
BBX 5 8 0 0
BITMAP
08
18
28
28
48
78
88
88
ENDCHAR
STARTCHAR CYRILLIC CAPITAL LETTER BE
ENCODING 1041
SWIDTH 583 0
DWIDTH 7 0
BBX 6 8 0 0
BITMAP
7C
40
40
70
88
88
88
F0
ENDCHAR
STARTCHAR CYRILLIC CAPITAL LETTER VE
ENCODING 1042
SWIDTH 583 0
DWIDTH 7 0
BBX 6 8 0 0
BITMAP
78
44
48
70
88
88
88
F0
ENDCHAR
STARTCHAR CYRILLIC CAPITAL LETTER GHE
ENCODING 1043
SWIDTH 416 0
DWIDTH 5 0
BBX 5 8 0 0
BITMAP
78
40
40
40
80
80
80
80
ENDCHAR
STARTCHAR CYRILLIC CAPITAL LETTER DE
ENCODING 1044
SWIDTH 583 0
DWIDTH 7 0
BBX 8 10 -1 -2
BITMAP
07
09
09
11
12
12
22
7F
41
82
ENDCHAR
STARTCHAR CYRILLIC CAPITAL LETTER IE
ENCODING 1045
SWIDTH 500 0
DWIDTH 6 0
BBX 5 8 0 0
BITMAP
78
40
40
70
80
80
80
F0
ENDCHAR
STARTCHAR CYRILLIC CAPITAL LETTER ZHE
ENCODING 1046
SWIDTH 750 0
DWIDTH 9 0
BBX 8 8 0 0
BITMAP
49
4A
2A
3C
34
54
52
92
ENDCHAR
STARTCHAR CYRILLIC CAPITAL LETTER ZE
ENCODING 1047
SWIDTH 583 0
DWIDTH 7 0
BBX 6 8 0 0
BITMAP
38
44
08
30
08
08
88
70
ENDCHAR
STARTCHAR CYRILLIC CAPITAL LETTER I
ENCODING 1048
SWIDTH 583 0
DWIDTH 7 0
BBX 6 8 0 0
BITMAP
44
44
4C
54
A8
C8
88
88
ENDCHAR
STARTCHAR CYRILLIC CAPITAL LETTER SHORT I
ENCODING 1049
SWIDTH 583 0
DWIDTH 7 0
BBX 6 10 0 0
BITMAP
24
18
44
44
4C
54
A8
C8
88
88
ENDCHAR
STARTCHAR CYRILLIC CAPITAL LETTER KA
ENCODING 1050
SWIDTH 500 0
DWIDTH 6 0
BBX 6 8 0 0
BITMAP
44
48
50
60
A0
90
90
88
ENDCHAR
STARTCHAR CYRILLIC CAPITAL LETTER EL
ENCODING 1051
SWIDTH 583 0
DWIDTH 7 0
BBX 6 8 0 0
BITMAP
0C
14
14
24
28
48
48
88
ENDCHAR
STARTCHAR CYRILLIC CAPITAL LETTER EM
ENCODING 1052
SWIDTH 750 0
DWIDTH 9 0
BBX 7 8 0 0
BITMAP
12
12
36
36
5A
5A
92
92
ENDCHAR
STARTCHAR CYRILLIC CAPITAL LETTER EN
ENCODING 1053
SWIDTH 583 0
DWIDTH 7 0
BBX 6 8 0 0
BITMAP
44
44
44
7C
88
88
88
88
ENDCHAR
STARTCHAR CYRILLIC CAPITAL LETTER O
ENCODING 1054
SWIDTH 666 0
DWIDTH 8 0
BBX 7 8 0 0
BITMAP
1C
22
42
42
84
84
88
70
ENDCHAR
STARTCHAR CYRILLIC CAPITAL LETTER PE
ENCODING 1055
SWIDTH 583 0
DWIDTH 7 0
BBX 6 8 0 0
BITMAP
7C
44
44
44
88
88
88
88
ENDCHAR
STARTCHAR CYRILLIC CAPITAL LETTER ER
ENCODING 1056
SWIDTH 583 0
DWIDTH 7 0
BBX 6 8 0 0
BITMAP
78
44
44
78
80
80
80
80
ENDCHAR
STARTCHAR CYRILLIC CAPITAL LETTER ES
ENCODING 1057
SWIDTH 583 0
DWIDTH 7 0
BBX 6 8 0 0
BITMAP
38
44
40
80
80
80
88
70
ENDCHAR
STARTCHAR CYRILLIC CAPITAL LETTER TE
ENCODING 1058
SWIDTH 500 0
DWIDTH 6 0
BBX 5 8 1 0
BITMAP
F8
20
20
20
40
40
40
40
ENDCHAR
STARTCHAR CYRILLIC CAPITAL LETTER U
ENCODING 1059
SWIDTH 583 0
DWIDTH 7 0
BBX 6 8 0 0
BITMAP
44
44
44
44
38
08
88
70
ENDCHAR
STARTCHAR CYRILLIC CAPITAL LETTER EF
ENCODING 1060
SWIDTH 750 0
DWIDTH 9 0
BBX 8 8 0 0
BITMAP
08
3E
49
89
91
92
7C
10
ENDCHAR
STARTCHAR CYRILLIC CAPITAL LETTER HA
ENCODING 1061
SWIDTH 500 0
DWIDTH 6 0
BBX 6 8 0 0
BITMAP
44
48
28
30
30
50
48
88
ENDCHAR
STARTCHAR CYRILLIC CAPITAL LETTER TSE
ENCODING 1062
SWIDTH 583 0
DWIDTH 7 0
BBX 6 10 0 -2
BITMAP
44
44
44
44
88
88
88
FC
08
10
ENDCHAR
STARTCHAR CYRILLIC CAPITAL LETTER CHE
ENCODING 1063
SWIDTH 583 0
DWIDTH 7 0
BBX 5 8 1 0
BITMAP
88
88
88
88
70
10
10
10
ENDCHAR
STARTCHAR CYRILLIC CAPITAL LETTER SHA
ENCODING 1064
SWIDTH 750 0
DWIDTH 9 0
BBX 8 8 0 0
BITMAP
49
49
49
49
92
92
92
FE
ENDCHAR
STARTCHAR CYRILLIC CAPITAL LETTER SHCHA
ENCODING 1065
SWIDTH 750 0
DWIDTH 9 0
BBX 8 10 0 -2
BITMAP
49
49
49
49
92
92
92
FF
02
04
ENDCHAR
STARTCHAR CYRILLIC CAPITAL LETTER HARD SIGN
ENCODING 1066
SWIDTH 666 0
DWIDTH 8 0
BBX 6 8 0 0
BITMAP
E0
20
20
38
44
44
44
78
ENDCHAR
STARTCHAR CYRILLIC CAPITAL LETTER YERU
ENCODING 1067
SWIDTH 750 0
DWIDTH 9 0
BBX 8 8 0 0
BITMAP
41
41
41
71
8A
8A
8A
F2
ENDCHAR
STARTCHAR CYRILLIC CAPITAL LETTER SOFT SIGN
ENCODING 1068
SWIDTH 583 0
DWIDTH 7 0
BBX 5 8 0 0
BITMAP
40
40
40
70
88
88
88
F0
ENDCHAR
STARTCHAR CYRILLIC CAPITAL LETTER E
ENCODING 1069
SWIDTH 583 0
DWIDTH 7 0
BBX 6 8 0 0
BITMAP
38
44
04
1C
04
08
88
70
ENDCHAR
STARTCHAR CYRILLIC CAPITAL LETTER YU
ENCODING 1070
SWIDTH 833 0
DWIDTH 10 0
BBX 9 8 0 0
BITMAP
4700
4880
4880
7080
9080
9100
9100
8E00
ENDCHAR
STARTCHAR CYRILLIC CAPITAL LETTER YA
ENCODING 1071
SWIDTH 583 0
DWIDTH 7 0
BBX 6 8 0 0
BITMAP
3C
44
44
44
38
28
48
88
ENDCHAR
STARTCHAR CYRILLIC SMALL LETTER A
ENCODING 1072
SWIDTH 500 0
DWIDTH 6 0
BBX 5 6 0 0
BITMAP
38
48
48
90
90
68
ENDCHAR
STARTCHAR CYRILLIC SMALL LETTER BE
ENCODING 1073
SWIDTH 500 0
DWIDTH 6 0
BBX 6 9 0 0
BITMAP
04
38
40
70
48
88
88
90
60
ENDCHAR
STARTCHAR CYRILLIC SMALL LETTER VE
ENCODING 1074
SWIDTH 416 0
DWIDTH 5 0
BBX 4 6 0 0
BITMAP
20
50
60
90
90
60
ENDCHAR
STARTCHAR CYRILLIC SMALL LETTER GHE
ENCODING 1075
SWIDTH 500 0
DWIDTH 6 0
BBX 5 6 0 0
BITMAP
70
08
70
80
88
70
ENDCHAR
STARTCHAR CYRILLIC SMALL LETTER DE
ENCODING 1076
SWIDTH 500 0
DWIDTH 6 0
BBX 5 8 0 0
BITMAP
70
08
38
48
88
88
90
60
ENDCHAR
STARTCHAR CYRILLIC SMALL LETTER IE
ENCODING 1077
SWIDTH 500 0
DWIDTH 6 0
BBX 5 6 0 0
BITMAP
30
48
70
80
80
60
ENDCHAR
STARTCHAR CYRILLIC SMALL LETTER ZHE
ENCODING 1078
SWIDTH 750 0
DWIDTH 9 0
BBX 8 6 0 0
BITMAP
49
2A
2C
34
54
92
ENDCHAR
STARTCHAR CYRILLIC SMALL LETTER ZE
ENCODING 1079
SWIDTH 416 0
DWIDTH 5 0
BBX 4 6 0 0
BITMAP
60
10
20
10
90
60
ENDCHAR
STARTCHAR CYRILLIC SMALL LETTER I
ENCODING 1080
SWIDTH 500 0
DWIDTH 6 0
BBX 5 6 0 0
BITMAP
48
48
48
90
90
68
ENDCHAR
STARTCHAR CYRILLIC SMALL LETTER SHORT I
ENCODING 1081
SWIDTH 500 0
DWIDTH 6 0
BBX 6 9 0 0
BITMAP
24
18
00
48
48
48
90
90
68
ENDCHAR
STARTCHAR CYRILLIC SMALL LETTER KA
ENCODING 1082
SWIDTH 500 0
DWIDTH 6 0
BBX 5 6 0 0
BITMAP
48
50
60
A0
A0
90
ENDCHAR
STARTCHAR CYRILLIC SMALL LETTER EL
ENCODING 1083
SWIDTH 500 0
DWIDTH 6 0
BBX 5 6 0 0
BITMAP
18
28
28
50
50
90
ENDCHAR
STARTCHAR CYRILLIC SMALL LETTER EM
ENCODING 1084
SWIDTH 666 0
DWIDTH 8 0
BBX 7 6 0 0
BITMAP
12
36
36
5A
5A
92
ENDCHAR
STARTCHAR CYRILLIC SMALL LETTER EN
ENCODING 1085
SWIDTH 500 0
DWIDTH 6 0
BBX 5 6 0 0
BITMAP
48
48
78
90
90
90
ENDCHAR
STARTCHAR CYRILLIC SMALL LETTER O
ENCODING 1086
SWIDTH 500 0
DWIDTH 6 0
BBX 5 6 0 0
BITMAP
30
48
88
88
90
60
ENDCHAR
STARTCHAR CYRILLIC SMALL LETTER PE
ENCODING 1087
SWIDTH 500 0
DWIDTH 6 0
BBX 5 6 0 0
BITMAP
70
48
48
90
90
90
ENDCHAR
STARTCHAR CYRILLIC SMALL LETTER ER
ENCODING 1088
SWIDTH 500 0
DWIDTH 6 0
BBX 5 8 0 -2
BITMAP
70
48
48
48
90
E0
80
80
ENDCHAR
STARTCHAR CYRILLIC SMALL LETTER ES
ENCODING 1089
SWIDTH 500 0
DWIDTH 6 0
BBX 5 6 0 0
BITMAP
30
48
80
80
90
60
ENDCHAR
STARTCHAR CYRILLIC SMALL LETTER TE
ENCODING 1090
SWIDTH 750 0
DWIDTH 9 0
BBX 8 6 0 0
BITMAP
7E
49
49
92
92
92
ENDCHAR
STARTCHAR CYRILLIC SMALL LETTER U
ENCODING 1091
SWIDTH 500 0
DWIDTH 6 0
BBX 5 8 0 -2
BITMAP
48
48
48
90
90
70
20
C0
ENDCHAR
STARTCHAR CYRILLIC SMALL LETTER EF
ENCODING 1092
SWIDTH 750 0
DWIDTH 9 0
BBX 8 10 0 -2
BITMAP
04
04
3E
49
89
91
92
7C
20
20
ENDCHAR
STARTCHAR CYRILLIC SMALL LETTER HA
ENCODING 1093
SWIDTH 500 0
DWIDTH 6 0
BBX 5 6 0 0
BITMAP
48
50
20
20
50
90
ENDCHAR
STARTCHAR CYRILLIC SMALL LETTER TSE
ENCODING 1094
SWIDTH 500 0
DWIDTH 6 0
BBX 5 8 0 -2
BITMAP
48
48
48
90
90
68
10
20
ENDCHAR
STARTCHAR CYRILLIC SMALL LETTER CHE
ENCODING 1095
SWIDTH 500 0
DWIDTH 6 0
BBX 4 6 1 0
BITMAP
90
90
90
60
20
20
ENDCHAR
STARTCHAR CYRILLIC SMALL LETTER SHA
ENCODING 1096
SWIDTH 750 0
DWIDTH 9 0
BBX 8 6 0 0
BITMAP
49
49
49
92
92
6E
ENDCHAR
STARTCHAR CYRILLIC SMALL LETTER SHCHA
ENCODING 1097
SWIDTH 750 0
DWIDTH 9 0
BBX 8 8 0 -2
BITMAP
49
49
49
92
92
6D
02
04
ENDCHAR
STARTCHAR CYRILLIC SMALL LETTER HARD SIGN
ENCODING 1098
SWIDTH 583 0
DWIDTH 7 0
BBX 5 6 0 0
BITMAP
70
A0
30
48
48
30
ENDCHAR
STARTCHAR CYRILLIC SMALL LETTER YERU
ENCODING 1099
SWIDTH 666 0
DWIDTH 8 0
BBX 7 6 0 0
BITMAP
42
42
62
94
94
62
ENDCHAR
STARTCHAR CYRILLIC SMALL LETTER SOFT SIGN
ENCODING 1100
SWIDTH 500 0
DWIDTH 6 0
BBX 4 6 0 0
BITMAP
40
40
60
90
90
60
ENDCHAR
STARTCHAR CYRILLIC SMALL LETTER E
ENCODING 1101
SWIDTH 500 0
DWIDTH 6 0
BBX 5 6 0 0
BITMAP
70
08
38
08
10
E0
ENDCHAR
STARTCHAR CYRILLIC SMALL LETTER YU
ENCODING 1102
SWIDTH 666 0
DWIDTH 8 0
BBX 7 6 0 0
BITMAP
4C
52
62
A2
A4
98
ENDCHAR
STARTCHAR CYRILLIC SMALL LETTER YA
ENCODING 1103
SWIDTH 500 0
DWIDTH 6 0
BBX 5 6 0 0
BITMAP
38
48
48
30
50
90
ENDCHAR
STARTCHAR CYRILLIC SMALL LETTER IO
ENCODING 1105
SWIDTH 500 0
DWIDTH 6 0
BBX 6 8 0 0
BITMAP
24
00
30
48
70
80
80
60
ENDCHAR
STARTCHAR REPLACEMENT CHARACTER
ENCODING 65533
SWIDTH 500 0
DWIDTH 6 0
BBX 5 9 1 -1
BITMAP
A8
00
88
00
88
00
88
00
A8
ENDCHAR
ENDFONT
